<?xml version="1.0" standalone="no"?>
<svg viewBox="0 0 200 200" xmlns="http://www.w3.org/2000/svg">
  <path fill="#FF0066" d="M29,-43.2C40.2,-37.9,53.7,-34.3,56.7,-26.3C59.7,-18.3,52.1,-6,48.2,5.5C44.3,16.9,43.9,27.3,38.3,32.3C32.6,37.3,21.6,36.7,12.5,36.9C3.3,37,-4,37.9,-12.6,37.8C-21.3,37.7,-31.2,36.6,-39.7,31.7C-48.3,26.7,-55.6,17.9,-56.6,8.4C-57.6,-1.1,-52.3,-11.3,-45.6,-18.6C-38.8,-25.9,-30.6,-30.4,-22.8,-37.2C-14.9,-44,-7.5,-53.1,0.7,-54.2C8.9,-55.3,17.8,-48.4,29,-43.2Z" transform="translate(100 100)" />
  
</svg>
